<?xml version="1.0" encoding="utf-8"?>
<!-- Generator: Adobe Illustrator 22.1.0, SVG Export Plug-In . SVG Version: 6.00 Build 0)  -->
<!DOCTYPE svg PUBLIC "-//W3C//DTD SVG 1.1//EN" "http://www.w3.org/Graphics/SVG/1.1/DTD/svg11.dtd">
<svg version="1.1" id="レイヤー_1" xmlns="http://www.w3.org/2000/svg" xmlns:xlink="http://www.w3.org/1999/xlink" x="0px"
	 y="0px" viewBox="0 0 600 172" style="enable-background:new 0 0 600 172;" xml:space="preserve">
<style type="text/css">
	.st0{fill:#E60012;}
</style>
<g>
	<polygon class="st0" points="27.2,169.7 50.6,169.7 50.6,45.2 77.2,40 77.2,18.7 0,33.8 0,55 27.2,49.7 	"/>
	<polygon class="st0" points="159.8,169.7 159.8,7.6 136.5,10.6 136.5,79.4 112.3,79.4 112.3,13 89,16.8 89,169.7 112.3,169.7 
		112.3,100.6 136.5,100.6 136.5,169.7 	"/>
	<polygon class="st0" points="197.7,169.7 238,169.7 238,148.1 197.7,148.1 197.7,100.6 231.6,100.6 231.6,79.4 197.7,79.4 
		197.7,26.1 237.8,23.2 237.8,1.8 174.7,6.4 174.7,27.8 174.7,169.7 189.9,169.7 	"/>
	<path class="st0" d="M282.2,100.6c5-0.4,8.9-1.5,8.9-1.5l15.6,70.6h24.7l-19.9-76.8c0,0,7.3-5,11.6-12.4c4.2-7.3,6.9-14.7,7.7-32.8
		c0.8-18.1-2.7-27.8-9.3-35.5C315,4.5,303.8,1,291.5,0.2C279.1-0.6,250.5,1,250.5,1l0.2,168.7h23.7V99.8
		C274.5,99.8,277.2,101,282.2,100.6 M274.1,80.9V21.8c0,0,13.9-1.2,18.1,0.4c4.2,1.5,12,4.2,13.9,16.2c1.9,12,1.5,29.3-6.6,35.5
		c-8.1,6.2-9.7,5.4-15.4,6.2C278.3,80.9,274.1,80.9,274.1,80.9"/>
	<polygon class="st0" points="433.1,169.7 433.1,5.6 411.5,3.7 388.4,67.4 367.5,1.8 344.9,1 344.9,169.7 368.3,169.7 368.3,71.2 
		385.7,123.4 391.8,123.4 392.2,123.4 409.6,73.4 409.6,169.7 	"/>
	<path class="st0" d="M485.4,9.5C464.2,9.5,447,26.7,447,48v84c0,21.3,17.2,38.5,38.5,38.5c21.3,0,38.5-17.2,38.5-38.5V48
		C523.9,26.7,506.7,9.5,485.4,9.5 M499.9,134c0,8-6.5,14.5-14.5,14.5c-8,0-14.5-6.5-14.5-14.5V45.8c0-8,6.5-14.5,14.5-14.5
		c8,0,14.5,6.5,14.5,14.5V134z"/>
	<path class="st0" d="M567.1,170.3c19.6,0,32.9-9,32.9-35.3c0-12-5.2-23.1-12-31.8c-5.5-7-15.5-17.3-21.6-24.7
		c-5.2-6.3-9.8-12.8-9.8-23.4c0-9.5,3.1-13,9.9-13c11,0,11.9,12.2,11.8,24.6l19.3,1.2c0.5-13.3,4.4-40.7-31.2-43.2
		c-21-1.5-31.3,8.3-31.3,32c0,7.4,2.4,20.3,6.7,26c10,13.3,14.9,18.4,25.3,29c5.1,4.6,11.9,13.3,11.9,21.4
		c0,10.6-1.7,19.8-10.1,19.8c-10,0-13.5-5.6-13.1-19.1v-8.1h-21v10.2C534.6,160.7,543.1,170.3,567.1,170.3"/>
</g>
</svg>
