<svg id="Component_14_1" data-name="Component 14 – 1" xmlns="http://www.w3.org/2000/svg" xmlns:xlink="http://www.w3.org/1999/xlink" width="123.446" height="70.408" viewBox="0 0 123.446 70.408">
  <defs>
    <clipPath id="clip-path">
      <rect id="Rectangle_185" data-name="Rectangle 185" width="123.446" height="70.408" fill="none"/>
    </clipPath>
  </defs>
  <g id="Group_11" data-name="Group 11" clip-path="url(#clip-path)">
    <path id="Path_24" data-name="Path 24" d="M50.819,226.441v-.166c1.832-.323,4.084-1.359,4.007-4.255-.065-2.541-2.935-4.067-6.606-3.915l-2.081.052c-.978-4.91-5.288-6.242-11.762-6.051-1.2,6.083,3,7.825,7.216,7.825l-.011-1.442c-.787,0-6.5.046-5.832-5.054,7.283.154,7.036,4.3,7.036,7.17,0,0,.033,15.34,0,15.308,1.7-.065,1.583-.075,5.737-.075,4.186,0,6.652-2.2,6.652-5.068,0-2.093-1.086-3.871-4.356-4.329m-4.47-5.96c0-.269-.008-.531-.021-.783l.955-.061c2.191-.132,3.914.809,3.95,2.74a3.188,3.188,0,0,1-3.177,3.439H46.361c-.012-5.4-.012-5.429-.012-5.335M48.1,234.306l-1.717.044c-.008-2.923-.012-5.237-.016-7.066h1.759a3.205,3.205,0,0,1,3.337,3.41,3.32,3.32,0,0,1-3.363,3.612m22.445-16.071a5.153,5.153,0,0,1,0,2.2,35.456,35.456,0,0,1,4.9-.43v15.961a9.535,9.535,0,0,1,3.56.039v-16a41.1,41.1,0,0,1,4.77.386,4.506,4.506,0,0,1,.021-2.182Zm62.953-.039s.02,17.711.02,17.748a10.651,10.651,0,0,1,3.566,0V218.188a9.368,9.368,0,0,1-3.586.008m-36.264.027s0,3.263.006,6.992a57.986,57.986,0,0,1-7.287,0v-7.026a9.352,9.352,0,0,1-3.583.008s.018,17.711.018,17.748a10.646,10.646,0,0,1,3.566,0v-8.659a57.186,57.186,0,0,1,7.289-.01c0,4.368.009,8.677.009,8.693a10.827,10.827,0,0,1,3.565,0V218.216a9.363,9.363,0,0,1-3.582.007m20.128,3.463h.333s.242-1.5.548-2.656c-5.637-3.036-14.326-.762-14.326,8.27,0,7.831,7.778,10.715,13.654,7.853l.519-2.206-.3-.169c-3.432,3.445-9.932,2.635-9.932-5.487,0-8.832,6.946-9.827,9.5-5.6m7.581,12.247.015-15.734a11.01,11.01,0,0,1-3.6,0l0,17.62,9.023,0a5.3,5.3,0,0,1,.011-2.249,51.8,51.8,0,0,1-5.457.365m29.5-15.734-.015,11.641-10.015-11.616h-2.346v17.739a7.067,7.067,0,0,1,2.2-.076l.04-11.939c1.579,1.755,8.575,9.686,10.346,12.01l1.978.005V218.2a6.806,6.806,0,0,1-2.182,0m-91.563-.208-6.734,17.965a5.993,5.993,0,0,1,2.269,0c.62-1.924,1.212-3.683,1.752-5.25,1.678-.083,3.859-.1,5.578-.017.656,1.945,1.265,3.871,1.611,5.279a12.379,12.379,0,0,1,4.118-.015L64.8,218a5.133,5.133,0,0,1-1.924-.005M60.759,229c1.306-3.7,2.19-5.939,2.231-6.054.19.552,1.164,3.161,2.174,6.058-1.421.054-2.925.054-4.4,0" transform="translate(-33.174 -187.25)" fill="#00b08d"/>
    <path id="Path_25" data-name="Path 25" d="M73.206,207.545h-.684v-4.612a3.49,3.49,0,0,1-.56.775l-.359-.735a8.24,8.24,0,0,0,1.414-3.752l.715.117a12.513,12.513,0,0,1-.527,2.058v6.149m6.869-.925-.115.689H77.585a3.962,3.962,0,0,1-2.832-.933A4.876,4.876,0,0,1,73.8,207.5l-.4-.667a3.006,3.006,0,0,0,.908-1,5.817,5.817,0,0,1-.721-2.19l.6-.076a5.089,5.089,0,0,0,.427,1.557,7.629,7.629,0,0,0,.337-2.119H73.716v-.652a15.4,15.4,0,0,0,1.145-2.134H73.8v-.645h1.781v.669c-.288.645-1.107,2.1-1.123,2.121H75.6a10.124,10.124,0,0,1-.541,3.4,3.183,3.183,0,0,0,.845.535,4.134,4.134,0,0,0,1.736.322Zm-2.222-7.38v.582H79.57v1.3H80v.574H79.57v1.292H77.853v.641h1.834v.592H77.853v.673H79.96v.6H77.853v.809h-.64v-.809H75.689v-.6h1.523v-.673H75.929v-.592h1.283v-.641H76.064v-.577h1.148v-.716H75.585v-.574h1.627v-.714H76.064v-.584h1.148v-.582Zm1.058,1.166H77.852v.714h1.059Zm0,1.288H77.852v.716h1.059Z" transform="translate(-42.1 -184.182)" fill="#00b08d"/>
    <path id="Path_26" data-name="Path 26" d="M93.588,204.7a7.638,7.638,0,0,1-1.289,1.129,9.52,9.52,0,0,0,1.672.758l-.417.684a6.991,6.991,0,0,1-2.972-2.069v1.652a.592.592,0,0,1-.651.665H88.856l-.142-.723h.953c.2,0,.222-.083.222-.208V204.2H87.4v-.57h2.493v-.654h-2.9v.691a11.819,11.819,0,0,1-.186,1.865,5.793,5.793,0,0,1-.675,1.985l-.6-.618a4.1,4.1,0,0,0,.578-1.594,10.84,10.84,0,0,0,.17-1.7v-3.705H89.49v-.65h.735v.65h3.6v.657H86.992v1.825h2.9v-.6H87.4v-.575h2.493v-.423h.694v.423H93.19v1.178h.7v.592h-.7V204.2H90.582v.081a4.8,4.8,0,0,0,1.148,1.176,9.3,9.3,0,0,0,1.263-1.193l.595.435m-3.994,1.354c-.4.213-.615.29-2.5,1.1l-.286-.652a24.546,24.546,0,0,0,2.673-1.078Zm-1.8-1.784a6.1,6.1,0,0,1,1.327.787l-.479.545a3.985,3.985,0,0,0-1.238-.811Zm4.691-2.487h-1.9v.6h1.9Zm0,1.195h-1.9v.655h1.9Z" transform="translate(-45.42 -184.19)" fill="#00b08d"/>
    <path id="Path_27" data-name="Path 27" d="M106.734,204.581l-.018-2.559h1.717v-.748h-1.749l-.008-1.456h-.8l.018,1.456h-2.991v.748h3.024l.038,2.282a3.811,3.811,0,0,0-.927-.126c-1.193,0-1.993.7-1.993,1.6,0,.537.347,1.532,1.878,1.532a1.829,1.829,0,0,0,1.611-.7,1.854,1.854,0,0,0,.194-.955v-.25a6.068,6.068,0,0,1,1.355,1.229l.531-.714a6.844,6.844,0,0,0-1.886-1.344m-.756,1.085c0,.32-.017.973-.995.973-.633,0-1.194-.244-1.194-.863,0-.528.454-.926,1.29-.926a2.162,2.162,0,0,1,.9.184Z" transform="translate(-49.564 -184.324)" fill="#00b08d"/>
    <path id="Path_28" data-name="Path 28" d="M100.4,199.817c0,.046-.034.235-.043.35a34.221,34.221,0,0,0-.277,4.138,12.941,12.941,0,0,0,.292,3.035l.794-.117a15.62,15.62,0,0,1-.3-3.237,19.685,19.685,0,0,1,.385-4.077l-.854-.091" transform="translate(-48.891 -184.324)" fill="#00b08d"/>
    <path id="Path_29" data-name="Path 29" d="M113.682,209.1a12.106,12.106,0,0,0-1.336-1.672l.553-.374a13.438,13.438,0,0,1,1.434,1.623l-.651.423" transform="translate(-51.814 -186.05)" fill="#00b08d"/>
    <path id="Path_30" data-name="Path 30" d="M122.606,202.716v2.573a1.371,1.371,0,0,0,.7.968,2.931,2.931,0,0,0,1.4.337h4.592l-.169.692h-4.439a2.358,2.358,0,0,1-2.217-.985,6.847,6.847,0,0,1-1.254,1.227l-.356-.782a5.488,5.488,0,0,0,1.025-.826v-2.493h-.948v-.711h1.675m-.292-1.408a7.213,7.213,0,0,0-1.292-1.449l.518-.474a8.228,8.228,0,0,1,1.371,1.432Zm3.833-.828a6.09,6.09,0,0,0,.588-1.244l.7.186a8.225,8.225,0,0,1-.517,1.059h2.046v.643h-2.1v.916h1.833v.606H126.86v.924h1.833v.6H126.86v1.01h2.25v.631h-5.427v-3.968a4.833,4.833,0,0,1-.669.64l-.516-.586a6.215,6.215,0,0,0,2.03-2.7l.686.24a7.053,7.053,0,0,1-.533,1.039Zm.027.643h-1.781v.916h1.781Zm0,1.522h-1.781v.924h1.781Zm0,1.527h-1.781v1.009h1.781Z" transform="translate(-53.842 -184.177)" fill="#00b08d"/>
    <path id="Path_31" data-name="Path 31" d="M136.233,207.534h-.756v-4.821a6.173,6.173,0,0,1-.9,1.038l-.419-.781a7.984,7.984,0,0,0,2.191-3.7l.73.124a10.028,10.028,0,0,1-.848,2.1v6.048M142.4,201.5a11.764,11.764,0,0,1-3.416,1.735v3.021c0,.305.043.381.382.381h1.966c.292,0,.347-.124.394-.251a9.839,9.839,0,0,0,.088-1.369l.766.189a5.806,5.806,0,0,1-.206,1.662.757.757,0,0,1-.825.5h-2.469c-.346,0-.852-.044-.852-.739v-7.371h.756v3.221A9.764,9.764,0,0,0,141.9,200.9Z" transform="translate(-57.015 -184.19)" fill="#00b08d"/>
    <path id="Path_32" data-name="Path 32" d="M172.761,209.015a1.321,1.321,0,1,1,1.314-1.327,1.33,1.33,0,0,1-1.314,1.327m0-2.187a.866.866,0,1,0,.863.861.871.871,0,0,0-.863-.861" transform="translate(-65.901 -185.887)" fill="#00b08d"/>
    <path id="Path_33" data-name="Path 33" d="M151.934,199.285h.817v1.033h2.5v.728h-2.5v2.087a4.516,4.516,0,0,1,.161,1.168c0,2.608-2.183,2.957-3.757,3.047l-.25-.752A7.008,7.008,0,0,0,151,206.25a1.7,1.7,0,0,0,1.156-1.442,1.166,1.166,0,0,1-.6.562,1.728,1.728,0,0,1-.729.152,1.749,1.749,0,0,1-1.756-1.828,1.779,1.779,0,0,1,1.882-1.823,1.513,1.513,0,0,1,1.023.33l-.021-1.154h-4.439v-.728h4.433l-.015-1.033m.069,4.179a.963.963,0,0,0-.242-.57,1.073,1.073,0,0,0-.792-.31,1.04,1.04,0,0,0-1.113,1.094,1.021,1.021,0,0,0,1.033,1.11A1.05,1.05,0,0,0,152,203.757Z" transform="translate(-60.199 -184.197)" fill="#00b08d"/>
    <path id="Path_34" data-name="Path 34" d="M165.006,200.02v.685c-.321.283-.723.633-1.03.926-.874.8-.974.89-1.238,1.114a2.963,2.963,0,0,1,1.367-.279,2.841,2.841,0,0,1,1.532.4,2.308,2.308,0,0,1,.917,1.941c0,1.332-1.014,2.705-3.311,2.705-1.058,0-2.288-.437-2.288-1.515a1.482,1.482,0,0,1,1.592-1.305,1.7,1.7,0,0,1,1.68,1.645,1.416,1.416,0,0,1-.069.42,1.936,1.936,0,0,0,1.612-1.963c0-1.146-.757-1.645-1.861-1.645a4.045,4.045,0,0,0-2.419.855,19.846,19.846,0,0,0-1.567,1.574l-.678-.523c.3-.271.516-.464,2.4-2.263l2.021-1.867.2-.2-3.825.037v-.748h4.956m-1.506,6.418a1.008,1.008,0,0,0-1-1.114.76.76,0,0,0-.845.7c0,.826,1.307.819,1.771.809a.908.908,0,0,0,.079-.4" transform="translate(-62.996 -184.372)" fill="#00b08d"/>
    <path id="Path_35" data-name="Path 35" d="M91.573,260.264c1.212-1.449,1.9-3.314,2.042-6.653l.866.081c-.265,4-.995,5.67-2.234,7.153l-.673-.582m6.006-6.662a14,14,0,0,0,.673,3.737,7.842,7.842,0,0,0,1.688,2.942l-.748.584c-1.139-1.383-2.132-3.189-2.443-7.16Zm.857,1.092a7.706,7.706,0,0,0-.519-1.493l.594-.174a6.754,6.754,0,0,1,.545,1.449Zm1.148-.3a7.088,7.088,0,0,0-.546-1.433l.584-.19a7.451,7.451,0,0,1,.554,1.413Z" transform="translate(-46.861 -196.95)" fill="#00b08d"/>
    <path id="Path_36" data-name="Path 36" d="M104.589,260.558a7.963,7.963,0,0,0,2.643-1.684,9.587,9.587,0,0,0,2.8-4.154h-4.968v-.784h6.089a10.1,10.1,0,0,1-1.8,3.807,38.729,38.729,0,0,1,3.171,2.809l-.682.672a31.481,31.481,0,0,0-2.982-2.869,10.223,10.223,0,0,1-3.764,2.883l-.5-.679" transform="translate(-49.964 -197.227)" fill="#00b08d"/>
    <path id="Path_37" data-name="Path 37" d="M123.692,254.51c-.653,3.78-2.608,6.017-6.444,6.662l-.346-.746c3.673-.623,5.03-2.444,5.733-5.151h-3.483a9.242,9.242,0,0,1-2.222,2.16l-.529-.628a7.354,7.354,0,0,0,2.98-3.627l.9.161a6.558,6.558,0,0,1-.592,1.168h4" transform="translate(-52.781 -197.047)" fill="#00b08d"/>
    <path id="Path_38" data-name="Path 38" d="M129.478,258.508h-.854v-4.839h.854Zm4.742-1.286a3.537,3.537,0,0,1-1.558,3.243c-.64.43-1.332.641-3.338.822l-.246-.8c2.152-.114,3.147-.444,3.692-1.153a2.806,2.806,0,0,0,.575-1.833v-4h.875Z" transform="translate(-55.695 -197.125)" fill="#00b08d"/>
    <path id="Path_39" data-name="Path 39" d="M141.555,256.148a10.2,10.2,0,0,0-2.8-1.341l.409-.731a11.9,11.9,0,0,1,2.9,1.276l-.51.8m-2.752,4.081a7.133,7.133,0,0,0,4.6-1.726,8.338,8.338,0,0,0,2.234-3.817l.822.366a7.753,7.753,0,0,1-7.339,6.078Z" transform="translate(-58.112 -197.261)" fill="#00b08d"/>
  </g>
</svg>
