<?xml version="1.0" encoding="UTF-8"?><svg id="_イヤー_2" xmlns="http://www.w3.org/2000/svg" viewBox="0 0 200 200"><defs><style>.cls-1{fill:#fabd00;}.cls-2{fill:#004c88;}.cls-3{fill:#003067;}.cls-4{fill:#00a6d9;}.cls-5{fill:#00973b;}.cls-6{fill:#0075ba;}.cls-7{fill:#ed6a02;}.cls-8{fill:#f5a200;}.cls-9{fill:#e83819;}.cls-10{fill:#d39200;}.cls-11{fill:#c60f28;}.cls-12{fill:#e5001e;}.cls-13{fill:#dc007a;}.cls-14{fill:#d7a600;}.cls-15{fill:#427935;}.cls-16{fill:#970b31;}.cls-17{fill:#25a739;}</style></defs><g id="design"><g><path class="cls-17" d="M51.38,71.47c2.49-4.23,5.5-8.1,8.96-11.53L30.95,27.7c-7.39,7.07-13.7,15.26-18.66,24.29l39.09,19.48Z"/><path class="cls-14" d="M123.43,48.7c4.45,2.04,8.59,4.64,12.33,7.72l29.47-32.19c-7.76-6.7-16.57-12.22-26.12-16.3l-15.68,40.76Z"/><path class="cls-11" d="M190.93,58.39l-39.06,19.48c1.87,4.35,3.19,8.98,3.91,13.81l43.46-4.1c-1.28-10.29-4.13-20.1-8.3-29.18"/><path class="cls-5" d="M149.06,72.22l39.06-19.47c-4.84-8.99-11.01-17.16-18.25-24.24l-29.47,32.18c3.36,3.45,6.28,7.32,8.67,11.54"/><path class="cls-15" d="M43.62,99.98c0-.88,.03-1.76,.07-2.63L.22,93.46c-.14,2.16-.22,4.33-.22,6.52,0,8.34,1.03,16.44,2.96,24.18l41.98-12.05c-.86-3.91-1.32-7.97-1.32-12.14"/><path class="cls-1" d="M143.59,135.71c-3.09,3.76-6.66,7.11-10.6,9.97l22.95,37.16c8.52-5.77,16.1-12.82,22.47-20.87l-34.82-26.26Z"/><path class="cls-9" d="M156.38,99.98c0,4.12-.44,8.13-1.29,11.99l41.97,12.06c1.91-7.71,2.93-15.77,2.93-24.06,0-2.06-.07-4.1-.19-6.14l-43.46,4.11c.02,.68,.04,1.35,.04,2.03"/><path class="cls-8" d="M57.11,136.55l-34.74,26.41c6.46,7.96,14.11,14.89,22.69,20.56l22.95-37.12c-4.04-2.8-7.71-6.11-10.89-9.84"/><path class="cls-6" d="M44.32,91.08c.78-4.91,2.2-9.61,4.16-14L9.43,57.62c-4.31,9.18-7.27,19.13-8.62,29.56l43.5,3.9Z"/><path class="cls-16" d="M150.6,186.21l-22.92-37.12c-4.16,2.35-8.65,4.2-13.37,5.44l8.09,42.93c10.06-2.31,19.55-6.15,28.2-11.25"/><path class="cls-4" d="M153.42,118.06c-1.52,4.47-3.58,8.68-6.1,12.57l34.85,26.29c5.66-8.14,10.13-17.15,13.19-26.8l-41.94-12.06Z"/><path class="cls-7" d="M108.13,155.79c-2.65,.38-5.37,.59-8.13,.59-2.22,0-4.41-.14-6.56-.39l-8.08,42.94c4.79,.7,9.67,1.07,14.65,1.07,5.52,0,10.94-.45,16.21-1.32l-8.08-42.9Z"/><path class="cls-12" d="M103.6,43.7c4.84,.31,9.52,1.23,13.95,2.69l15.68-40.75C123.91,2.35,113.96,.4,103.6,.03V43.7Z"/><path class="cls-13" d="M87.22,154.92c-4.89-1.14-9.53-2.92-13.84-5.24l-22.96,37.14c8.83,5.06,18.49,8.8,28.73,10.98l8.07-42.89Z"/><path class="cls-3" d="M83.05,46.19c4.53-1.43,9.3-2.3,14.24-2.53V0c-10.49,.28-20.57,2.19-30.03,5.47l15.78,40.72Z"/><path class="cls-10" d="M53.29,131.53c-2.77-4.09-5.03-8.57-6.65-13.34l-41.95,12.04c3.18,10.01,7.89,19.33,13.86,27.7l34.75-26.41Z"/><path class="cls-2" d="M65.07,55.75c3.69-2.92,7.74-5.38,12.09-7.32L61.38,7.73c-9.4,3.95-18.05,9.29-25.73,15.76l29.41,32.26Z"/></g></g></svg>